<?xml version="1.0" encoding="utf-8"?>
<!-- Generator: Adobe Illustrator 22.0.1, SVG Export Plug-In . SVG Version: 6.00 Build 0)  -->
<svg version="1.1" xmlns="http://www.w3.org/2000/svg" xmlns:xlink="http://www.w3.org/1999/xlink" x="0px" y="0px"
	 viewBox="0 0 300 300" style="enable-background:new 0 0 300 300;" xml:space="preserve">
<style type="text/css">
	.st0{fill:#4D4D4D;}
	.st1{fill:none;stroke:#FFFFFF;stroke-width:2.3529;stroke-miterlimit:10;}
	.st2{fill:none;stroke:#FFFFFF;stroke-width:2.3529;stroke-miterlimit:10;stroke-dasharray:13.7747,13.7747;}
	.st3{fill:#FFFFFF;stroke:#000000;stroke-width:0.669;stroke-miterlimit:10;}
	.st4{fill:#FFFFFF;stroke:#000000;stroke-width:0.6529;stroke-miterlimit:10;}
	.st5{fill:#FFFFFF;stroke:#000000;stroke-width:0.8088;stroke-miterlimit:10;}
	.st6{fill:#B3B3B3;}
	.st7{fill:#534741;}
	.st8{fill:#009245;}
	.st9{fill:url(#SVGID_1_);}
	.st10{fill:url(#SVGID_2_);}
</style>
<g id="Layer_4">
	<g>
		<path class="st0" d="M-0.2,25.6c25.5,3.8,81.6,15.3,133,54.4c34.7,26.5,53.7,55.1,63.7,73.4c-4.2,0-8.6,0-12.8,0
			c0,16.3,0,32.7,0,49C176.4,182,149.1,115,70.3,77.8C44.7,65.7,19.8,59.6-0.2,56.6C-0.2,46.2-0.2,36-0.2,25.6z"/>
		<g>
			<g>
				<path class="st1" d="M-0.2,40.1c2.3,0.4,4.7,1,7.4,1.6"/>
				<path class="st2" d="M21.6,45.3c26.5,7.2,62.7,20.6,97.7,46.2c27.3,20,45.4,41.1,57.2,58"/>
				<path class="st1" d="M180.2,155c1.3,1.9,2.6,3.9,3.6,5.7"/>
			</g>
		</g>
	</g>
</g>
<g id="Layer_1">
	<rect x="183.5" y="153.5" class="st3" width="72" height="146.5"/>
	<rect x="193.5" y="108.5" class="st4" width="54" height="45"/>
	<path class="st5" d="M237.5,108.5h-36c3.3-9,6.7-18,10-27c6,0,12,0,18,0C232.2,90.5,234.8,99.5,237.5,108.5z"/>
	<g>
		<polygon points="220,27 222,81 218,81 		"/>
	</g>
	<rect x="195" y="241" class="st6" width="9" height="9"/>
	<rect x="195" y="259" class="st6" width="9" height="9"/>
	<rect x="195" y="223" class="st6" width="9" height="9"/>
	<rect x="195" y="187" class="st6" width="9" height="9"/>
	<rect x="195" y="205" class="st6" width="9" height="9"/>
	<rect x="195" y="169" class="st6" width="9" height="9"/>
	<rect x="236" y="241" class="st6" width="9" height="9"/>
	<rect x="236" y="259" class="st6" width="9" height="9"/>
	<rect x="236" y="223" class="st6" width="9" height="9"/>
	<rect x="236" y="187" class="st6" width="9" height="9"/>
	<rect x="236" y="205" class="st6" width="9" height="9"/>
	<rect x="236" y="169" class="st6" width="9" height="9"/>
	<rect x="202" y="135" class="st6" width="9" height="9"/>
	<rect x="202" y="117" class="st6" width="9" height="9"/>
	<rect x="229" y="135" class="st6" width="9" height="9"/>
	<rect x="229" y="117" class="st6" width="9" height="9"/>
	<path d="M224.9,300c-3.3,0-6.6,0-9.9,0c0-3,0-6.1,0-9.1c-0.5-3.7,2.2-6.9,4.9-6.9s5.4,3.1,4.9,6.9C224.9,293.9,224.9,297,224.9,300
		z"/>
	<rect x="216" y="241" class="st6" width="9" height="9"/>
	<rect x="216" y="259" class="st6" width="9" height="9"/>
	<rect x="216" y="223" class="st6" width="9" height="9"/>
	<rect x="216" y="187" class="st6" width="9" height="9"/>
	<rect x="216" y="205" class="st6" width="9" height="9"/>
	<rect x="216" y="169" class="st6" width="9" height="9"/>
	<path d="M48.5,298.6"/>
	<path d="M102.6,303.6"/>
</g>
<g id="Layer_3">
	<path class="st7" d="M61.5,213.9c-0.5,27.8-1,55.6-1.5,83.5c-6.1,0-12.3,0-18.4,0c-0.2-28.3-0.3-56.6-0.5-85
		C47.9,212.9,54.7,213.4,61.5,213.9z"/>
	<path class="st8" d="M58,172c10.3,0,18.6,8.3,18.6,18.6s-8.3,18.6-18.6,18.6s-18.6-8.3-18.6-18.6S47.7,172,58,172z M43.9,161.4
		c7.7,0,14,6.3,14,14c0,7.7-6.3,14-14,14s-14-6.3-14-14C29.9,167.7,36.2,161.4,43.9,161.4z M36.2,182.1c8.7,0,15.7,7,15.7,15.7
		s-7,15.7-15.7,15.7s-15.7-7-15.7-15.7S27.5,182.1,36.2,182.1z M31,173.5c4.7,0,8.5,3.8,8.5,8.5s-3.8,8.5-8.5,8.5s-8.5-3.8-8.5-8.5
		S26.3,173.5,31,173.5z M24.2,195.9c5.5,0,10,4.5,10,10c0,5.5-4.5,10-10,10s-10-4.5-10-10C14.2,200.4,18.7,195.9,24.2,195.9z
		 M73.4,190.4c5.2,0,9.4,4.2,9.4,9.4c0,5.2-4.2,9.4-9.4,9.4S64,205,64,199.8C64,194.6,68.2,190.4,73.4,190.4z M64.2,202.5
		c5.1,0,9.2,4.1,9.2,9.2s-4.1,9.2-9.2,9.2s-9.2-4.1-9.2-9.2S59.1,202.5,64.2,202.5z M51.7,202.5c4.4,0,8,3.6,8,8s-3.6,8-8,8
		s-8-3.6-8-8S47.3,202.5,51.7,202.5z M37,205.9c5.4,0,9.8,4.4,9.8,9.8s-4.4,9.8-9.8,9.8s-9.8-4.4-9.8-9.8S31.6,205.9,37,205.9z"/>
</g>
<g id="Layer_2">
	<path d="M85.8,282.6c0.2-2.6,0.2-5,0-6.8c4.3-2.6,17.7-9.7,35.4-7.3c13.9,1.9,23.4,8.5,27.4,11.8c1.9,0.2,4.7,0.7,8,2.4
		c2.1,1.2,4.7,2.6,4.7,4.7c0,2.8-4.3,4.7-4.7,4.7c-2.4,0-4.7,0-7.3,0c-0.2-0.7-0.5-1.9-1.7-3.1c-0.5-0.5-2.1-2.4-4.7-2.1
		c-1.9,0-3.1,1.2-3.5,1.4c-1.7,1.4-2.1,3.3-2.1,3.8c-11.6,0-23.1,0-34.5,0c0-0.5,0.5-2.4-0.5-4.3c-0.2-0.5-1.2-2.1-3.1-3.1
		c-2.4-0.9-4.5,0-5,0.2c-2.6,1.2-3.3,4-3.3,4.3c-2.1-0.2-4.3-0.7-6.4-0.9C85.3,286.7,85.5,284.8,85.8,282.6z"/>
	
		<radialGradient id="SVGID_1_" cx="97.0485" cy="9.874" r="5.4123" gradientTransform="matrix(1 0 0 -1 0 300)" gradientUnits="userSpaceOnUse">
		<stop  offset="0" style="stop-color:#FFFFFF"/>
		<stop  offset="0.8864" style="stop-color:#000000"/>
	</radialGradient>
	<circle class="st9" cx="97.1" cy="290.2" r="5.4"/>
	
		<radialGradient id="SVGID_2_" cx="143.4525" cy="7.4137" r="5.4123" gradientTransform="matrix(1 0 0 -1 0 300)" gradientUnits="userSpaceOnUse">
		<stop  offset="0" style="stop-color:#FFFFFF"/>
		<stop  offset="0.8864" style="stop-color:#000000"/>
	</radialGradient>
	<circle class="st10" cx="143.4" cy="292.6" r="5.4"/>
</g>
</svg>
