<?xml version="1.0" encoding="utf-8"?>
<!-- Generator: Adobe Illustrator 22.0.1, SVG Export Plug-In . SVG Version: 6.00 Build 0)  -->
<svg version="1.1" id="Layer_1" xmlns="http://www.w3.org/2000/svg" xmlns:xlink="http://www.w3.org/1999/xlink" x="0px" y="0px"
	 viewBox="0 0 428.5 350.6" style="enable-background:new 0 0 428.5 350.6;" xml:space="preserve">
<style type="text/css">
	.st0{fill:#3C3C3C;}
	.st1{fill:url(#SVGID_1_);}
	.st2{fill:#4D4D4D;}
	.st3{fill:#808080;}
	.st4{opacity:0.51;fill:#DD6844;}
	.st5{fill:#333333;}
	.st6{fill:url(#SVGID_2_);}
	.st7{fill:url(#SVGID_3_);}
	.st8{fill:url(#SVGID_4_);}
	.st9{fill:url(#SVGID_5_);}
</style>
<path class="st0" d="M374,171.7c0.5,18.5,1.7,62.8-29.9,92.2c-30.6,28.4-72.6,24.4-106.5,21.1c-23.6-2.3-95.4-9.2-123.5-61.2
	c-11.5-21.3-12.7-44.9-12.9-52c-0.1-5.7-0.4-30.4,10.9-54.1C142.6,53.4,233,47.9,239.3,47.6c19.8-0.9,57.6-2.7,90.5,23.1
	C372,103.9,373.6,157.4,374,171.7z"/>
<linearGradient id="SVGID_1_" gradientUnits="userSpaceOnUse" x1="-28.0968" y1="184.2281" x2="332.637" y2="184.2281" gradientTransform="matrix(0.8441 7.776594e-02 -9.441830e-02 0.8665 45.7397 12.2529)">
	<stop  offset="0" style="stop-color:#020202"/>
	<stop  offset="1" style="stop-color:#9D9D9D"/>
</linearGradient>
<path class="st1" d="M107.6,109.2c16.7-3.3,31.5-0.9,35.3,1.4c28.7,17.1,37.8,111,2.6,133.5c-11.9,7.6-26,8.9-26,8.9
	c-10.3,0.9-16.4-1.5-28.8-4.3C65.9,243,65.2,247,43.9,242c-22.7-5.2-37.2-8.2-41.9-19c-6.2-14,3.8-30.8,13.6-46.9
	c0,0,27.4-44.9,81.8-64.1C102.5,110.2,106.7,109.4,107.6,109.2z"/>
<path class="st2" d="M204.1,90.3c-10,35.8-47.6,69.7-71.5,60.1c-23.1-9.3-25.5-56.2-18.3-85.6c2-8,7-24.1,19.4-38.9
	c5.3-6.4,25.2-30.2,44.1-25.2c15.6,4.2,21.3,25.7,25.1,39.7C205.1,49,210.2,68.4,204.1,90.3z"/>
<ellipse transform="matrix(0.3465 -0.9381 0.9381 0.3465 22.6621 199.752)" class="st3" cx="154.7" cy="83.6" rx="53.1" ry="32.3"/>
<circle class="st4" cx="87.8" cy="149.4" r="13.4"/>
<path class="st5" d="M381.6,350.6c-11.9,0-23.7-6.5-37-13.8c-20-11-42.8-23.4-74.7-20.7c-24,2-47.5,12.3-69.8,30.5l-0.2,0.2
	l-0.2-0.1c-3.7-0.8-5.6-2.1-6-3.8c-0.3-1.3,0.3-2.8,1.7-4.6c8.6-11.1,48.5-32.1,88-33.1c31.3-0.7,52.1,11.5,68.8,21.4
	c14.3,8.5,25.6,15.1,37.5,9.3c9.1-4.5,16.2-15.2,20.4-30.9c3.7-13.7,5.1-30.4,3.8-47.2c-1.9-25.4-9.3-44.4-18.4-47.4
	c-4.4-1.4-9.1,0.7-13.6,2.8c-4.7,2.1-9.1,4.2-12.6,1.7c-6-4.3-4.6-18.4,4.3-43.4l0.3-0.7l0.6,0.5c7.7,7,15.3,14.5,22.5,22.1
	c10.2,10.9,17.7,20,19.1,21.8c12.8,16.5,16.4,56.3,8.1,88.9c-5.7,22.4-16.4,38-30,43.9C389.8,349.8,385.7,350.6,381.6,350.6z"/>
<linearGradient id="SVGID_2_" gradientUnits="userSpaceOnUse" x1="82.8559" y1="293.8134" x2="82.8559" y2="293.8134">
	<stop  offset="0" style="stop-color:#020202"/>
	<stop  offset="1" style="stop-color:#9D9D9D"/>
</linearGradient>
<path class="st6" d="M82.9,293.8"/>
<linearGradient id="SVGID_3_" gradientUnits="userSpaceOnUse" x1="110.0668" y1="264.5617" x2="110.0668" y2="264.5617">
	<stop  offset="0" style="stop-color:#020202"/>
	<stop  offset="1" style="stop-color:#9D9D9D"/>
</linearGradient>
<path class="st7" d="M110.1,264.6"/>
<linearGradient id="SVGID_4_" gradientUnits="userSpaceOnUse" x1="95.7811" y1="327.827" x2="95.7811" y2="327.827">
	<stop  offset="0" style="stop-color:#020202"/>
	<stop  offset="1" style="stop-color:#9D9D9D"/>
</linearGradient>
<path class="st8" d="M95.8,327.8"/>
<linearGradient id="SVGID_5_" gradientUnits="userSpaceOnUse" x1="39.9988" y1="308.0991" x2="39.9988" y2="308.0991">
	<stop  offset="0" style="stop-color:#020202"/>
	<stop  offset="1" style="stop-color:#9D9D9D"/>
</linearGradient>
<path class="st9" d="M40,308.1"/>
</svg>
