<?xml version="1.0" encoding="utf-8"?>
<!-- Generator: Adobe Illustrator 22.0.1, SVG Export Plug-In . SVG Version: 6.00 Build 0)  -->
<svg version="1.1" xmlns="http://www.w3.org/2000/svg" xmlns:xlink="http://www.w3.org/1999/xlink" x="0px" y="0px"
	 viewBox="0 0 300 300" style="enable-background:new 0 0 300 300;" xml:space="preserve">
<style type="text/css">
	.st0{opacity:0.85;fill:none;stroke:#000000;stroke-width:0.75;stroke-miterlimit:10;enable-background:new    ;}
	.st1{opacity:0.68;fill:#0000FF;enable-background:new    ;}
	.st2{opacity:0.5;fill:#0000FF;enable-background:new    ;}
	.st3{opacity:0.45;fill:#0000FF;enable-background:new    ;}
	.st4{opacity:0.35;fill:#0000FF;enable-background:new    ;}
	.st5{opacity:0.18;fill:#0000FF;enable-background:new    ;}
	.st6{fill:#3C3C3C;}
	.st7{fill:url(#SVGID_1_);}
	.st8{fill:#4D4D4D;}
	.st9{fill:#808080;}
	.st10{opacity:0.51;fill:#DD6844;enable-background:new    ;}
	.st11{fill:#333333;}
</style>
<g id="Layer_1">
	<path class="st0" d="M76,120c-16.9,0-25-3.6-27,0c-1.9,3.4,4.8,7.8,9,18c5.6,13.6,2.2,26.9,0,36c-0.8,3.1-1.5,5.1-2.8,8.7
		c-2.6,7-6,14.9-14.6,29.5c-3.4,5.9-3.1,5.1-9.6,15.8c-12.4,20.5-15.7,27.3-18,36c-2.3,8.8-2,13.8,0,18c2.5,5.3,7.1,7.9,9,9
		c13.8,7.8,30.5,0.6,54,0c28.3-0.7,47.7,8.7,63,0c1.9-1.1,6.5-3.7,9-9c0.9-1.9,3.2-7.5,0-18c-3.2-10.6-8.6-15.5-18-27
		c0,0-18.8-23.2-30.9-48.9c-2.2-4.7-3.8-9.6-3.8-9.6c-0.5-1.5-0.9-2.9-1.3-4.5c-2.2-9.1-5.6-22.4,0-36c4.2-10.2,10.9-14.6,9-18
		C101,116.4,92.9,120,76,120z"/>
	<path class="st1" d="M139,291c-15,8.5-33.9-0.3-61.2,0C53,291.3,36,298.9,22,291c-1.9-1.1-6.5-3.7-9-9c-2-4.2-2.3-9.2,0-18
		c2.4-9.1,5.9-16.2,18-36c3.3-5.4,6.1-9.9,8-13c3.3-1.2,8-3,13.9-5c24.8-8.6,31.2-9,34-9c4.8-0.1,12.2,0.5,21.2,4
		c6.2,9.1,11.3,16.6,15,22c4,5.8,6,8.7,7,10c6.9,9.1,9.9,10.7,14,18c1.4,2.5,2.9,5.2,4,9c1,3.5,3.3,11.1,0,18
		C145.5,287.3,140.9,289.9,139,291z"/>
	<circle class="st2" cx="83.5" cy="169.5" r="7.5"/>
	<circle class="st3" cx="76" cy="150" r="7"/>
	<circle class="st4" cx="66" cy="129" r="6"/>
	<circle class="st5" cx="51" cy="111" r="6"/>
	<circle class="st2" cx="88" cy="191" r="9"/>
</g>
<g id="Layer_2">
	<path class="st6" d="M275.5,239c0.2,5.8,0.5,19.7-9.4,29c-9.6,8.9-22.8,7.7-33.5,6.6c-7.4-0.7-30-2.9-38.8-19.2
		c-3.6-6.7-4-14.1-4.1-16.3c0-1.8-0.1-9.6,3.4-17c9.6-20.2,38-21.9,40-22c6.2-0.3,18.1-0.8,28.4,7.3
		C274.8,217.7,275.3,234.6,275.5,239z"/>
	
		<linearGradient id="SVGID_1_" gradientUnits="userSpaceOnUse" x1="162.2375" y1="53.5414" x2="275.5836" y2="53.5414" gradientTransform="matrix(0.8441 7.776594e-02 9.441830e-02 -0.8665 17.4142 272.2029)">
		<stop  offset="0" style="stop-color:#020202"/>
		<stop  offset="1" style="stop-color:#9D9D9D"/>
	</linearGradient>
	<path class="st7" d="M191.7,219.4c5.2-1,9.9-0.3,11.1,0.4c9,5.4,11.9,34.9,0.8,41.9c-3.7,2.4-8.2,2.8-8.2,2.8
		c-3.2,0.3-5.2-0.5-9-1.4c-7.8-1.8-8-0.5-14.7-2.1c-7.1-1.6-11.7-2.6-13.2-6c-1.9-4.4,1.2-9.7,4.3-14.7c0,0,8.6-14.1,25.7-20.1
		C190.1,219.7,191.5,219.5,191.7,219.4z"/>
	<path class="st8" d="M222.1,213.5c-3.1,11.2-15,21.9-22.5,18.9c-7.3-2.9-8-17.7-5.8-26.9c0.6-2.5,2.2-7.6,6.1-12.2
		c1.7-2,7.9-9.5,13.9-7.9c4.9,1.3,6.7,8.1,7.9,12.5C222.4,200.5,224,206.6,222.1,213.5z"/>
	
		<ellipse transform="matrix(0.3465 -0.9381 0.9381 0.3465 -63.294 331.8785)" class="st9" cx="206.5" cy="211.4" rx="16.7" ry="10.1"/>
	<circle class="st10" cx="185.5" cy="232" r="4.2"/>
	<path class="st11" d="M277.8,295.3c-3.7,0-7.4-2-11.6-4.3c-6.3-3.5-13.4-7.4-23.5-6.5c-7.5,0.6-14.9,3.9-21.9,9.6l-0.1,0.1l-0.1,0
		c-1.2-0.3-1.8-0.7-1.9-1.2c-0.1-0.4,0.1-0.9,0.5-1.4c2.7-3.5,15.2-10.1,27.7-10.4c9.8-0.2,16.4,3.6,21.6,6.7
		c4.5,2.7,8,4.7,11.8,2.9c2.9-1.4,5.1-4.8,6.4-9.7c1.2-4.3,1.6-9.6,1.2-14.8c-0.6-8-2.9-14-5.8-14.9c-1.4-0.4-2.9,0.2-4.3,0.9
		c-1.5,0.7-2.9,1.3-4,0.5c-1.9-1.4-1.4-5.8,1.4-13.6l0.1-0.2l0.2,0.2c2.4,2.2,4.8,4.6,7.1,6.9c3.2,3.4,5.6,6.3,6,6.8
		c4,5.2,5.2,17.7,2.5,27.9c-1.8,7-5.2,11.9-9.4,13.8C280.4,295,279.1,295.3,277.8,295.3z"/>
</g>
</svg>
