<?xml version="1.0" encoding="utf-8"?>
<!-- Generator: Adobe Illustrator 22.0.1, SVG Export Plug-In . SVG Version: 6.00 Build 0)  -->
<svg version="1.1" id="Layer_1" xmlns="http://www.w3.org/2000/svg" xmlns:xlink="http://www.w3.org/1999/xlink" x="0px" y="0px"
	 viewBox="0 0 300 300" style="enable-background:new 0 0 300 300;" xml:space="preserve">
<style type="text/css">
	.st0{opacity:0.85;fill:none;stroke:#000000;stroke-width:0.75;stroke-miterlimit:10;}
	.st1{opacity:0.68;fill:#0000FF;}
	.st2{opacity:0.5;fill:#0000FF;}
	.st3{opacity:0.45;fill:#0000FF;}
	.st4{opacity:0.35;fill:#0000FF;}
	.st5{opacity:0.18;fill:#0000FF;}
	.st6{fill:#333333;stroke:#000000;stroke-miterlimit:10;}
	.st7{fill:#FFFFFF;stroke:#000000;stroke-width:0.7143;stroke-miterlimit:10;}
</style>
<path class="st0" d="M144,90c-16.9,0-25-3.6-27,0c-1.9,3.4,4.8,7.8,9,18c5.6,13.6,2.2,26.9,0,36c-0.8,3.1-1.5,5.1-2.8,8.7
	c-2.6,7-6,14.9-14.6,29.5c-3.4,5.9-3.1,5.1-9.6,15.8c-12.4,20.5-15.7,27.3-18,36c-2.3,8.8-2,13.8,0,18c2.5,5.3,7.1,7.9,9,9
	c13.8,7.8,30.5,0.6,54,0c28.3-0.7,47.7,8.7,63,0c1.9-1.1,6.5-3.7,9-9c0.9-1.9,3.2-7.5,0-18c-3.2-10.6-8.6-15.5-18-27
	c0,0-18.8-23.2-30.9-48.9c-2.2-4.7-3.8-9.6-3.8-9.6c-0.5-1.5-0.9-2.9-1.3-4.5c-2.2-9.1-5.6-22.4,0-36c4.2-10.2,10.9-14.6,9-18
	C169,86.4,160.9,90,144,90z"/>
<path class="st1" d="M207,261c-15,8.5-33.9-0.3-61.2,0c-24.8,0.3-41.8,7.9-55.8,0c-1.9-1.1-6.5-3.7-9-9c-2-4.2-2.3-9.2,0-18
	c2.4-9.1,5.9-16.2,18-36c3.3-5.4,6.1-9.9,8-13c3.3-1.2,8-3,13.9-5c24.8-8.6,31.2-9,34-9c4.8-0.1,12.2,0.5,21.2,4
	c6.2,9.1,11.3,16.6,15,22c4,5.8,6,8.7,7,10c6.9,9.1,9.9,10.7,14,18c1.4,2.5,2.9,5.2,4,9c1,3.5,3.3,11.1,0,18
	C213.5,257.3,208.9,259.9,207,261z"/>
<circle class="st2" cx="151.5" cy="139.5" r="7.5"/>
<circle class="st3" cx="144" cy="120" r="7"/>
<circle class="st4" cx="134" cy="99" r="6"/>
<circle class="st5" cx="119" cy="81" r="6"/>
<circle class="st2" cx="156" cy="161" r="9"/>
<path class="st6" d="M189.5,26.5c0,15,0,30,0,45c11.7,2.8,20.8,2.1,27,1c16.5-3,23.8-11.4,36.5-9.5c7.7,1.2,13.4,5.6,17,9
	c0.2-15.2,0.3-30.3,0.5-45.5c-4.1-3.3-10.6-7.4-19-8c-13-1-19.5,7.3-35,10C210.4,29.6,201.3,30,189.5,26.5z"/>
<rect x="192.5" y="30.5" class="st7" width="5" height="5"/>
<rect x="192.5" y="40.5" class="st7" width="5" height="5"/>
<rect x="192.5" y="50.5" class="st7" width="5" height="5"/>
<rect x="192.5" y="60.5" class="st7" width="5" height="5"/>
<rect x="262.5" y="27.5" class="st7" width="5" height="5"/>
<rect x="262.5" y="37.5" class="st7" width="5" height="5"/>
<rect x="262.5" y="47.5" class="st7" width="5" height="5"/>
<rect x="262.5" y="57.5" class="st7" width="5" height="5"/>
</svg>
