<?xml version="1.0" encoding="utf-8"?>
<!-- Generator: Adobe Illustrator 22.0.1, SVG Export Plug-In . SVG Version: 6.00 Build 0)  -->
<svg version="1.1" id="Layer_1" xmlns="http://www.w3.org/2000/svg" xmlns:xlink="http://www.w3.org/1999/xlink" x="0px" y="0px"
	 viewBox="0 0 300 300" style="enable-background:new 0 0 300 300;" xml:space="preserve">
<style type="text/css">
	.st0{fill:#333333;stroke:#000000;stroke-miterlimit:10;}
	.st1{fill:#FFFFFF;stroke:#000000;stroke-width:0.7143;stroke-miterlimit:10;}
</style>
<path class="st0" d="M189.5,26.5c0,15,0,30,0,45c11.7,2.8,20.8,2.1,27,1c16.5-3,23.8-11.4,36.5-9.5c7.7,1.2,13.4,5.6,17,9
	c0.2-15.2,0.3-30.3,0.5-45.5c-4.1-3.3-10.6-7.4-19-8c-13-1-19.5,7.3-35,10C210.4,29.6,201.3,30,189.5,26.5z"/>
<rect x="192.5" y="30.5" class="st1" width="5" height="5"/>
<rect x="192.5" y="40.5" class="st1" width="5" height="5"/>
<rect x="192.5" y="50.5" class="st1" width="5" height="5"/>
<rect x="192.5" y="60.5" class="st1" width="5" height="5"/>
<rect x="262.5" y="27.5" class="st1" width="5" height="5"/>
<rect x="262.5" y="37.5" class="st1" width="5" height="5"/>
<rect x="262.5" y="47.5" class="st1" width="5" height="5"/>
<rect x="262.5" y="57.5" class="st1" width="5" height="5"/>
</svg>
